<?xml version="1.0" encoding="iso-8859-1"?>
<!-- Uploaded to: SVG Repo, www.svgrepo.com, Generator: SVG Repo Mixer Tools -->
<svg height="800px" width="800px" version="1.1" id="Layer_1" xmlns="http://www.w3.org/2000/svg" xmlns:xlink="http://www.w3.org/1999/xlink" 
	 viewBox="0 0 512 512" xml:space="preserve">
<circle style="fill:#4D4D4D;" cx="308.57" cy="347.944" r="164.056"/>
<path style="fill:#333333;" d="M214.221,347.944c0-78.644,55.342-144.352,129.202-160.333c-11.234-2.43-22.892-3.723-34.854-3.723
	c-90.606,0-164.056,73.45-164.056,164.056S217.962,512,308.568,512c11.962,0,23.621-1.292,34.854-3.723
	C269.563,492.295,214.221,426.587,214.221,347.944z"/>
<path style="fill:#F2F2F2;" d="M123.793,0c15.195,0,42.21,10.974,42.21,43.054s-13.507,71.334-13.507,116.92
	s55.717,99.614,55.717,184.033S165.158,512,165.158,512h-41.365H82.428c0,0-43.054-83.575-43.054-167.994
	S95.091,205.56,95.091,159.974S81.583,75.133,81.583,43.054S108.597,0,123.793,0z"/>
<path style="fill:#E6E6E6;" d="M123.798,0.004c-4.863,0-13.512,10.966-13.512,43.054c0,32.075,4.33,71.33,4.33,116.916
	s-17.83,99.619-17.83,184.029C96.788,428.425,110.565,512,110.565,512H82.428c0,0-43.054-83.575-43.054-167.997
	c0-84.41,55.717-138.443,55.717-184.029S81.592,75.133,81.592,43.057C81.592,10.971,108.602,0.004,123.798,0.004z"/>
<g>
	<path style="fill:#FC583D;" d="M159.549,94.76c-1.786,10.295-3.596,21.058-4.939,32.29H93.006
		c-1.342-11.232-3.153-21.996-4.952-32.29H159.549z"/>
	<path style="fill:#FC583D;" d="M168.742,213.03H78.874c5.369-11.409,10.03-22.11,12.954-32.29h63.96
		C158.712,190.922,163.373,201.622,168.742,213.03z"/>
</g>
<g>
	<path style="fill:#DB4531;" d="M91.828,180.741h21.742c-0.937,10.181-2.431,20.881-4.154,32.29H78.874
		C84.243,201.622,88.902,190.922,91.828,180.741z"/>
	<path style="fill:#DB4531;" d="M93.006,127.051c-1.342-11.232-3.153-21.996-4.952-32.29h24.313
		c0.57,10.295,1.153,21.058,1.583,32.29H93.006z"/>
</g>
<path d="M404.122,287.248c-6.567,0-12.584-4.268-14.743-10.466c-2.085-5.983-0.285-12.848,4.533-16.99
	c5.139-4.419,12.768-4.999,18.511-1.398c5.291,3.316,8.181,9.744,7.085,15.903C418.194,281.681,411.644,287.248,404.122,287.248z"/>
<path d="M354.269,305.276c-6.589,0-12.545-4.276-14.739-10.466c-2.118-5.977-0.261-12.856,4.539-16.99
	c5.136-4.423,12.764-4.995,18.508-1.398c5.309,3.326,8.155,9.736,7.083,15.903C368.376,299.715,361.769,305.276,354.269,305.276z"/>
<path d="M396.755,328.111c-6.396,0-12.264-4.052-14.568-10.006c-2.305-5.959-0.661-12.901,4.08-17.194
	c5.011-4.537,12.591-5.305,18.415-1.88c5.532,3.254,8.568,9.806,7.459,16.13C410.845,322.547,404.267,328.111,396.755,328.111z"/>
</svg>