<svg xmlns="http://www.w3.org/2000/svg" version="1.1" xmlns:xlink="http://www.w3.org/1999/xlink" xmlns:svgjs="http://svgjs.dev/svgjs" width="1920" height="560" preserveAspectRatio="none" viewBox="0 0 1920 560"><g mask="url(&quot;#SvgjsMask1006&quot;)" fill="none"><path d="M2080 560L0 560 L0 400.02Q75.06 315.08, 160 390.15Q186.51 320.66, 256 347.17Q285.44 280.62, 352 310.06Q412.86 274.92, 448 335.78Q523.56 315.34, 544 390.9Q610.25 297.14, 704 363.39Q722.38 285.77, 800 304.15Q855.4 263.55, 896 318.96Q967.17 294.13, 992 365.31Q1030.16 243.47, 1152 281.63Q1217.72 251.35, 1248 317.06Q1341.78 250.84, 1408 344.61Q1518.79 295.4, 1568 406.19Q1569.85 312.03, 1664 313.88Q1698.11 251.99, 1760 286.1Q1879.88 245.99, 1920 365.87Q1974.34 260.21, 2080 314.55z" fill="#182f5d"></path><path d="M1952 560L0 560 L0 488.38Q76.13 404.51, 160 480.64Q218.38 379.02, 320 437.41Q387.07 344.49, 480 411.56Q579.56 351.12, 640 450.68Q674.51 389.19, 736 423.7Q762.96 354.66, 832 381.62Q889.91 343.53, 928 401.45Q1020.77 334.23, 1088 427Q1191.15 370.15, 1248 473.3Q1341.2 406.5, 1408 499.71Q1425.77 421.48, 1504 439.24Q1540.66 379.9, 1600 416.56Q1673.23 393.79, 1696 467.03Q1736.36 411.39, 1792 451.75Q1896.38 396.13, 1952 500.52z" fill="#25467d"></path><path d="M2016 560L0 560 L0 561.54Q56.85 458.39, 160 515.24Q251.36 446.6, 320 537.96Q373.74 431.7, 480 485.43Q541.63 451.07, 576 512.7Q667.54 444.24, 736 535.78Q807.13 510.9, 832 582.03Q885.08 539.11, 928 592.18Q969.6 473.78, 1088 515.38Q1142.95 474.34, 1184 529.29Q1293.8 479.09, 1344 588.88Q1372.23 457.11, 1504 485.34Q1564.56 449.9, 1600 510.46Q1706.18 456.64, 1760 562.83Q1775.48 482.31, 1856 497.78Q1955.89 437.67, 2016 537.57z" fill="rgba(39, 88, 149, 1)"></path></g><defs><mask id="SvgjsMask1006"><rect width="1920" height="560" fill="#ffffff"></rect></mask></defs></svg>