<svg xmlns="http://www.w3.org/2000/svg" version="1.1" xmlns:xlink="http://www.w3.org/1999/xlink" xmlns:svgjs="http://svgjs.dev/svgjs" width="1440" height="560" preserveAspectRatio="none" viewBox="0 0 1440 560"><g mask="url(&quot;#SvgjsMask1001&quot;)" fill="none"><path d="M569.32 634.7C686.02 620.43 641.78 365.84 948.94 357.14 1256.11 348.44 1512.84 173.66 1708.19 172.34" stroke="rgba(51,121,194,0.58)" stroke-width="2"></path><path d="M582.62 635.73C738.36 590.33 789.98 152.79 1013.55 150.6 1237.11 148.41 1320.66 388.5 1444.47 397" stroke="rgba(51,121,194,0.58)" stroke-width="2"></path><path d="M877.29 646.78C991.91 631.23 1024.33 387.63 1244.53 365.34 1464.73 343.05 1505.93 160.04 1611.77 152.54" stroke="rgba(51,121,194,0.58)" stroke-width="2"></path><path d="M74.95 654.68C213.81 642.21 302.92 355.93 544.8 354.26 786.68 352.59 779.73 424.26 1014.66 424.26 1249.58 424.26 1365.75 354.45 1484.51 354.26" stroke="rgba(51,121,194,0.58)" stroke-width="2"></path><path d="M646.7 648.69C773.73 640.59 839.2 416.79 1091.89 401.63 1344.58 386.47 1411.4 173.51 1537.08 166.43" stroke="rgba(51,121,194,0.58)" stroke-width="2"></path></g><defs><mask id="SvgjsMask1001"><rect width="1440" height="560" fill="#ffffff"></rect></mask></defs></svg>