<svg xmlns="http://www.w3.org/2000/svg" version="1.1" xmlns:xlink="http://www.w3.org/1999/xlink" xmlns:svgjs="http://svgjs.dev/svgjs" width="1440" height="830" preserveAspectRatio="none" viewBox="0 0 1440 830"><g mask="url(&quot;#SvgjsMask1708&quot;)" fill="none"><use xlink:href="#SvgjsG1719" transform="translate(0, 0)" fill="rgba(40, 55, 99, 1)"></use><use xlink:href="#SvgjsG1719" transform="translate(0, 608)" fill="rgba(40, 55, 99, 1)"></use><use xlink:href="#SvgjsG1719" transform="translate(608, 0)" fill="rgba(40, 55, 99, 1)"></use><use xlink:href="#SvgjsG1719" transform="translate(608, 608)" fill="rgba(40, 55, 99, 1)"></use><use xlink:href="#SvgjsG1719" transform="translate(1216, 0)" fill="rgba(40, 55, 99, 1)"></use><use xlink:href="#SvgjsG1719" transform="translate(1216, 608)" fill="rgba(40, 55, 99, 1)"></use></g><defs><mask id="SvgjsMask1708"><rect width="1440" height="830" fill="#ffffff"></rect></mask><g id="SvgjsG1717"><path d="M7.713 15.485C3.459 15.485 0 12.025 0 7.768 0 3.513 3.459 0.051 7.713 0.051S15.432 3.513 15.432 7.768c0 4.257-3.465 7.716-7.719 7.717z m0-1.91c3.201 0 5.81-2.604 5.81-5.809 0-3.199-2.61-5.807-5.81-5.807-3.202 0-5.804 2.609-5.804 5.807-0.001 3.206 2.602 5.809 5.804 5.809z"></path><path d="M7.753 8.787a0.574 0.574 0 0 1-0.554-0.042 0.578 0.578 0 0 1-0.259-0.399L6.931 3.862a0.58 0.58 0 0 1 1.162 0v3.478l2.975-1.4a0.578 0.578 0 0 1 0.773 0.275c0.138 0.292 0.011 0.637-0.276 0.774l-3.81 1.798z"></path></g><g id="SvgjsG1709"><path d="M6.038 10.472H10.08v3.613c0 0.594 0.479 1.073 1.073 1.073s1.066-0.479 1.066-1.073V10.472c0.322 0 0.358-0.207 0.358-0.451V7.323l-3.384-1.652H2.004l-0.923-0.526c-0.3-0.169-0.679-0.061-0.844 0.232a0.613 0.613 0 0 0 0.234 0.844l1.458 0.838v7.026a1.071 1.071 0 0 0 1.073 1.073c0.587 0 1.066-0.479 1.065-1.073v-2.754L6 14.607c0.309 0.508 0.966 0.673 1.467 0.372a1.073 1.073 0 0 0 0.372-1.466l-1.803-3.041z m3.484-5.538l3.047 1.452v-0.573h2.476l0.908-1.96L9.522 0.791v4.143z" fill-rule="evenodd"></path></g><g id="SvgjsG1711"><path d="M6.041 12.752H4.028v-5.742h2.013v5.742z m4.878-5.742h2.014v5.742H10.919v-5.742z m-3.559 0H9.6v5.742H7.36v-5.742z m-5.271 5.742L1.244 14.144l14.525-0.025-0.791-1.369h-0.729v-5.742h1.422V5.008H14.596L8.596 2.974l-6.116 2.034h-1.102v2h1.333v5.742h-0.622z" fill-rule="evenodd"></path></g><g id="SvgjsG1713"><path d="M8.655 0C5.901 0 3.36 2.069 2.833 4.347 2.715 4.854 2.582 6.177 2.582 6.177L1.318 9.37A0.469 0.469 0 0 0 1.28 9.561a0.488 0.488 0 0 0 0.489 0.488h0.814v1.697c0 1.324 1.07 2.396 2.392 2.396h0.952V16h3.535v-0.829h1.44V16h1.503V10.847c1.413-1.111 2.322-2.838 2.322-4.774C14.726 2.718 12.01 0 8.655 0zM4.077 7.387a0.682 0.682 0 0 1-0.682-0.682c0-0.375 0.306-0.68 0.682-0.68a0.681 0.681 0 0 1 0.679 0.68c0 0.377-0.306 0.682-0.68 0.682z m5.385 4.46h1.44v0.779h-1.44v-0.779z m0-1.108h1.44v0.778h-1.44V10.739z m0 2.215h1.44v0.78h-1.44v-0.78z m0 1.109h1.44v0.78h-1.44V14.062z m0-4.431h1.448c-0.003 0.057-0.009 0.113-0.009 0.172v0.607h-1.44V9.632z m3.986-4.488a1.557 1.557 0 0 1-0.427 1.071c-0.045 0.592-0.42 1.091-0.942 1.316v0.005c-0.637 0.372-1.019 1.005-1.135 1.766H10.354v-1.765c0.004-0.55 0.177-0.902 0.539-1.119a1.907 1.907 0 0 0 0.356-0.26 1.229 1.229 0 0 1 0.659 0.556c0.032 0.053 0.088 0.083 0.144 0.082 0.027 0 0.055-0.007 0.08-0.021a0.163 0.163 0 0 0 0.064-0.224h-0.001a1.563 1.563 0 0 0-0.721-0.657c0.15-0.231 0.234-0.506 0.23-0.837 0-0.002 0.002-0.003 0.003-0.006 0-0.149-0.022-0.294-0.062-0.431a1.572 1.572 0 0 0 0.871-0.486 0.164 0.164 0 0 0-0.011-0.234 0.164 0.164 0 0 0-0.232 0.011 1.248 1.248 0 0 1-0.755 0.396c-0.24-0.444-0.686-0.76-1.209-0.818a1.235 1.235 0 0 1 0.353-0.724 0.166 0.166 0 0 0 0-0.233 0.166 0.166 0 0 0-0.234 0 1.572 1.572 0 0 0-0.45 0.937 1.244 1.244 0 0 1-1.088-1.234c0-0.09-0.075-0.165-0.163-0.165-0.093 0-0.166 0.075-0.167 0.165 0 0.107 0.01 0.21 0.031 0.31a1.24 1.24 0 0 1-1.235 0.229s-0.002 0-0.003-0.001a1.225 1.225 0 0 1-0.453-0.289c-0.063-0.064-0.168-0.064-0.233 0-0.065 0.064-0.065 0.168 0 0.233a1.59 1.59 0 0 0 0.452 0.316c-0.033 0.411-0.271 0.764-0.605 0.963a1.578 1.578 0 0 0-0.84-0.639 0.166 0.166 0 0 0-0.209 0.107c-0.024 0.087 0.02 0.179 0.108 0.207a1.247 1.247 0 0 1 0.63 0.455 1.221 1.221 0 0 1-0.32 0.042h-0.02a1.568 1.568 0 0 0-1.096 0.444 0.161 0.161 0 0 0-0.003 0.233 0.162 0.162 0 0 0 0.231 0.003 1.236 1.236 0 0 1 0.868-0.35h0.019c0.794 0 1.453-0.591 1.557-1.358 0.113 0.024 0.226 0.038 0.34 0.038A1.574 1.574 0 0 0 8.699 2.88a1.558 1.558 0 0 0 0.45 0.583 1.556 1.556 0 0 0-0.341 0.82 1.622 1.622 0 0 0-0.256-0.021 1.557 1.557 0 0 0-0.736 0.185c-0.08 0.043-0.111 0.142-0.068 0.224 0.03 0.055 0.088 0.087 0.147 0.087a0.144 0.144 0 0 0 0.075-0.02 1.25 1.25 0 0 1 0.583-0.146c0.087 0 0.173 0.01 0.256 0.027a1.576 1.576 0 0 0 0.428 0.92c0.033 0.034 0.076 0.051 0.118 0.051 0.04 0 0.082-0.015 0.115-0.046 0.067-0.063 0.069-0.167 0.005-0.232h-0.001a1.253 1.253 0 0 1-0.345-0.829c0-0.004 0.001-0.008 0-0.013v-0.018a1.237 1.237 0 0 1 0.299-0.81 1.57 1.57 0 0 0 0.701 0.166s0.001 0 0.003 0h0.003a1.244 1.244 0 0 1 1.241 1.24 1.566 1.566 0 0 0-0.401-0.052c-0.196 0-0.395 0.036-0.587 0.114a0.164 0.164 0 0 0-0.091 0.215c0.035 0.084 0.129 0.125 0.214 0.09a1.247 1.247 0 0 1 0.464-0.091c0.124 0 0.248 0.019 0.363 0.055a0.953 0.953 0 0 1-0.242 0.464 0.14 0.14 0 0 0-0.025 0.029c-0.094 0.092-0.207 0.177-0.346 0.262-0.477 0.278-0.706 0.784-0.701 1.403V9.301h-0.563V7.624c0-0.616-0.386-1.201-0.873-1.409-0.232-0.09-0.474-0.241-0.65-0.438a1.558 1.558 0 0 1-0.878 0.271 1.555 1.555 0 0 1-0.877-0.269 1.581 1.581 0 0 1-0.87 0.26c-0.883 0-1.596-0.715-1.597-1.597 0-0.659 0.398-1.224 0.969-1.467 0.154-0.703 0.777-1.229 1.527-1.23 0.04 0 0.076 0.003 0.113 0.006a1.567 1.567 0 0 1 1.295-0.684c0.266 0 0.516 0.066 0.736 0.185a1.558 1.558 0 0 1 1.925 0.158 1.553 1.553 0 0 1 0.365-0.044c0.633 0 1.18 0.381 1.424 0.926 0.642 0.195 1.11 0.79 1.11 1.496a1.576 1.576 0 0 1-0.054 0.408 1.561 1.561 0 0 1 0.321 0.948z"></path></g><g id="SvgjsG1710"><path d="M3.236 14.219c1.457 0 2.639-1.182 2.639-2.641 0-1.454-1.182-2.637-2.639-2.637-1.453 0-2.636 1.182-2.636 2.638 0 1.459 1.182 2.641 2.636 2.642zM0 11.578c0-1.787 1.452-3.234 3.236-3.234 1.789 0 3.239 1.446 3.239 3.234 0 1.79-1.45 3.237-3.239 3.237C1.452 14.815 0 13.367 0 11.578z m12.764 2.671c1.453 0 2.636-1.18 2.636-2.639 0-1.457-1.182-2.637-2.636-2.637-1.457 0-2.639 1.181-2.639 2.638 0 1.459 1.182 2.64 2.639 2.64zM9.525 11.61c0-1.789 1.452-3.236 3.239-3.236 1.784 0 3.236 1.446 3.236 3.236s-1.452 3.237-3.236 3.237c-1.788 0-3.239-1.448-3.239-3.237z m0.009-7.898c0.672 0 1.218-0.542 1.218-1.214S10.206 1.28 9.534 1.28s-1.218 0.546-1.218 1.218 0.546 1.214 1.218 1.214z"></path><path d="M9.584 6.666c-0.176 0.004-0.366-0.084-0.506-0.306l-0.791-1.235-1.631 1.614 1.513 0.795c0.622 0.298 0.528 0.844 0.528 0.844v3.424c0 0.388-0.312 0.704-0.701 0.704s-0.701-0.316-0.7-0.704V9.062l-2.623-1.457a1.02 1.02 0 0 1-0.525-0.889 1.003 1.003 0 0 1 0.262-0.683l2.573-2.577c0.32-0.362 0.765-0.304 0.765-0.304 0.539 0 0.823 0.47 0.823 0.47l1.337 2.095 2.03-0.004c0.729 0 0.729 0.952 0 0.952h-2.353z"></path></g><g id="SvgjsG1718"><path d="M10.596 3.917a0.64 0.64 0 0 0-0.639 0.641c0 0.354 0.287 0.64 0.639 0.64a0.639 0.639 0 0 0 0.639-0.64 0.639 0.639 0 0 0-0.639-0.641z m-0.151 5.25a0.642 0.642 0 0 0 0.643 0.641c0.352 0 0.638-0.286 0.637-0.64a0.639 0.639 0 0 0-0.637-0.641 0.641 0.641 0 0 0-0.642 0.641z m-4.678-5.945a0.641 0.641 0 0 0 0 1.282 0.64 0.64 0 0 0 0.642-0.64 0.641 0.641 0 0 0-0.642-0.642z"></path><path d="M8.659 0C5.904 0 3.363 2.068 2.835 4.347c-0.119 0.507-0.25 1.83-0.25 1.829L1.316 9.37A0.488 0.488 0 0 0 1.28 9.561a0.491 0.491 0 0 0 0.491 0.489h0.814v1.697c0 1.323 1.072 2.395 2.394 2.395h0.951V16H12.408V10.847c1.413-1.111 2.32-2.838 2.32-4.775C14.728 2.718 12.01 0 8.659 0z m-4.583 7.387c-0.372 0-0.675-0.304-0.675-0.679a0.677 0.677 0 0 1 0.675-0.677c0.375 0 0.68 0.303 0.68 0.677a0.68 0.68 0 0 1-0.68 0.679z m8.959-0.918l-0.631 0.632-0.77-0.543c-0.148 0.077-0.304 0.139-0.467 0.18l-0.142 0.838h0.294l0.079 0.448c0.031 0.008 0.062 0.013 0.092 0.024 0.079 0.029 0.152 0.067 0.22 0.11l0.355-0.25 0.292 0.291-0.262 0.371c0.056 0.1 0.101 0.206 0.125 0.318l0.429 0.074v0.412l-0.446 0.076c-0.009 0.032-0.013 0.063-0.024 0.094a1.147 1.147 0 0 1-0.112 0.223l0.251 0.353-0.292 0.291-0.369-0.262a1.149 1.149 0 0 1-0.318 0.126l-0.075 0.429H10.851l-0.074-0.448c-0.032-0.009-0.064-0.013-0.096-0.025a1.174 1.174 0 0 1-0.221-0.11l-0.356 0.252L9.815 10.08l0.262-0.37a1.151 1.151 0 0 1-0.125-0.319l-0.431-0.074v-0.411l0.45-0.077c0.008-0.032 0.013-0.063 0.025-0.094 0.029-0.079 0.066-0.152 0.109-0.22l-0.251-0.356 0.291-0.291 0.371 0.262a1.174 1.174 0 0 1 0.317-0.125l0.064-0.372h-0.776L9.96 6.704c-0.035-0.011-0.07-0.02-0.104-0.034a2.221 2.221 0 0 1-0.352-0.168l-0.744 0.524-0.63-0.632 0.542-0.767a2.184 2.184 0 0 1-0.181-0.469l-0.894-0.154V4.27l-0.449 0.078c-0.007 0.022-0.009 0.044-0.017 0.065a1.402 1.402 0 0 1-0.109 0.223l0.345 0.489-0.416 0.414-0.506-0.357a1.438 1.438 0 0 1-0.294 0.116l-0.102 0.586-0.584 0-0.106-0.611c-0.02-0.007-0.042-0.009-0.062-0.017a1.43 1.43 0 0 1-0.226-0.11l-0.49 0.345-0.414-0.415 0.359-0.508a1.485 1.485 0 0 1-0.112-0.291L3.824 4.176V3.589l0.608-0.105c0.007-0.022 0.012-0.043 0.02-0.063 0.029-0.08 0.068-0.154 0.109-0.225l-0.345-0.488 0.413-0.415 0.508 0.358a1.439 1.439 0 0 1 0.295-0.117l0.102-0.586h0.584L6.224 2.56c0.021 0.007 0.043 0.008 0.063 0.016 0.08 0.03 0.154 0.069 0.225 0.11l0.489-0.344 0.415 0.414-0.359 0.507a1.397 1.397 0 0 1 0.115 0.293l0.586 0.101v0.427l0.768-0.132c0.011-0.035 0.02-0.07 0.033-0.105 0.046-0.126 0.104-0.243 0.17-0.355l-0.528-0.74 0.634-0.633 0.77 0.544a2.192 2.192 0 0 1 0.468-0.181l0.151-0.894h0.894l0.162 0.928c0.035 0.01 0.069 0.02 0.104 0.033 0.124 0.046 0.241 0.104 0.352 0.168l0.743-0.523 0.629 0.631-0.542 0.77c0.077 0.148 0.138 0.304 0.18 0.466l0.895 0.154v0.894l-0.929 0.16c-0.011 0.035-0.02 0.07-0.032 0.104-0.046 0.125-0.104 0.242-0.17 0.353l0.525 0.743z"></path></g><g id="SvgjsG1716"><path d="M12.872 14.056H9.025v-5.485L15.968 0H0l7.07 8.528v5.528h-3.773c-1.304 0.003-1.304 1.944 0 1.944H12.872c1.296 0 1.285-1.942 0-1.944zM8.021 4.809c-0.001-0.682 0.553-1.236 1.237-1.237 0.684 0 1.239 0.555 1.236 1.237 0.003 0.687-0.552 1.241-1.236 1.236-0.684 0.004-1.238-0.55-1.237-1.236z"></path></g><g id="SvgjsG1714"><path d="M1.971 11.92H0.64v2.621C0.64 15.344 1.362 16 2.249 16h11.653c0.887 0 1.61-0.656 1.61-1.459V11.92h-1.333v2.343c0 0.294-0.264 0.533-0.589 0.533H2.558c-0.326 0-0.587-0.239-0.587-0.533V11.92z"></path><path d="M12.555 13.673v-2.066L3.585 8.611v2.067z m-6.901-5.06c-0.309-0.348-2.359-2.718-0.291-4.769C7.088 2.133 7.339 0.696 6.758 0c0 0 4.389 1.804 1.808 5.988-0.442 0.71-1.546 1.549-0.969 3.278l-1.943-0.653z m2.695 0.568c-0.094-0.351-0.515-1.115 0.769-2.636 0.686-0.81 0.944-2.012 1.006-2.463 0 0 2.274 1.303 0.012 4.492l-1.787 0.607z m0.483 0.489l3.723-1.243v2.065l-0.632 0.208zM7.308 12.614l-3.723 1.241v-2.066l0.633-0.206z"></path></g><g id="SvgjsG1712"><path d="M11.221 11.657c-2.056 2.056-5.389 2.055-7.444 0-2.056-2.056-2.056-5.389 0-7.444 0.976-0.977 2.617-2.176 5.214-2.176 4.749 0 6.224-1.252 6.224-1.252 0 5.707-1.938 8.816-3.994 10.872z"></path><path d="M3.223 11.626L2.552 10.224l6.437-4.363z"></path><path d="M8.989 5.861l1.15 1.15-8.203 8.203-1.151-1.15z"></path></g><g id="SvgjsG1715"><path d="M7.926 0C3.552-0.003 0.004 3.58 0 7.996 0.004 12.419 3.552 16.002 7.926 16c4.377 0.002 7.924-3.581 7.927-8.004C15.85 3.58 12.303-0.003 7.926 0z m0 14.157c-3.366 0-6.095-2.757-6.091-6.161C1.831 4.598 4.56 1.842 7.926 1.843c3.368-0.001 6.098 2.756 6.102 6.153C14.024 11.4 11.294 14.157 7.927 14.157z"></path><path d="M7.104 10.825l1.792-0.008V9.432c-0.004-0.376 0.171-0.732 0.64-1.038 0.47-0.309 1.781-0.933 1.783-2.579-0.002-1.639-1.378-2.768-2.536-3.011-1.156-0.236-2.409-0.078-3.297 0.9-0.798 0.868-0.966 1.559-0.969 3.08h1.791v-0.354c-0.004-0.81 0.09-1.666 1.246-1.904 0.636-0.124 1.229 0.074 1.584 0.416 0.4 0.396 0.403 1.282-0.242 1.721l-1.004 0.684c-0.585 0.379-0.786 0.797-0.788 1.41v2.068z m-0.008 2.536V11.526h1.808v1.835z"></path></g><g id="SvgjsG1719"><use xlink:href="#SvgjsG1709" transform="translate(0, 0) scale(1.6)" fill="rgba(40, 55, 99, 1)"></use><use xlink:href="#SvgjsG1710" transform="translate(0, 60.800000000000004) scale(1.6)" fill="rgba(40, 55, 99, 1)"></use><use xlink:href="#SvgjsG1711" transform="translate(0, 121.60000000000001) scale(1.6)" fill="rgba(40, 55, 99, 1)"></use><use xlink:href="#SvgjsG1712" transform="translate(0, 182.4) scale(1.6)" fill="rgba(40, 55, 99, 1)"></use><use xlink:href="#SvgjsG1711" transform="translate(0, 243.20000000000002) scale(1.6)" fill="rgba(40, 55, 99, 1)"></use><use xlink:href="#SvgjsG1711" transform="translate(0, 304) scale(1.6)" fill="rgba(40, 55, 99, 1)"></use><use xlink:href="#SvgjsG1709" transform="translate(0, 364.8) scale(1.6)" fill="rgba(40, 55, 99, 1)"></use><use xlink:href="#SvgjsG1713" transform="translate(0, 425.6) scale(1.6)" fill="rgba(40, 55, 99, 1)"></use><use xlink:href="#SvgjsG1711" transform="translate(0, 486.40000000000003) scale(1.6)" fill="rgba(40, 55, 99, 1)"></use><use xlink:href="#SvgjsG1711" transform="translate(0, 547.2) scale(1.6)" fill="rgba(40, 55, 99, 1)"></use><use xlink:href="#SvgjsG1713" transform="translate(60.800000000000004, 0) scale(1.6)" fill="rgba(40, 55, 99, 1)"></use><use xlink:href="#SvgjsG1714" transform="translate(60.800000000000004, 60.800000000000004) scale(1.6)" fill="rgba(40, 55, 99, 1)"></use><use xlink:href="#SvgjsG1712" transform="translate(60.800000000000004, 121.60000000000001) scale(1.6)" fill="rgba(40, 55, 99, 1)"></use><use xlink:href="#SvgjsG1715" transform="translate(60.800000000000004, 182.4) scale(1.6)" fill="rgba(40, 55, 99, 1)"></use><use xlink:href="#SvgjsG1709" transform="translate(60.800000000000004, 243.20000000000002) scale(1.6)" fill="rgba(40, 55, 99, 1)"></use><use xlink:href="#SvgjsG1710" transform="translate(60.800000000000004, 304) scale(1.6)" fill="rgba(40, 55, 99, 1)"></use><use xlink:href="#SvgjsG1712" transform="translate(60.800000000000004, 364.8) scale(1.6)" fill="rgba(40, 55, 99, 1)"></use><use xlink:href="#SvgjsG1709" transform="translate(60.800000000000004, 425.6) scale(1.6)" fill="rgba(40, 55, 99, 1)"></use><use xlink:href="#SvgjsG1709" transform="translate(60.800000000000004, 486.40000000000003) scale(1.6)" fill="rgba(40, 55, 99, 1)"></use><use xlink:href="#SvgjsG1710" transform="translate(60.800000000000004, 547.2) scale(1.6)" fill="rgba(40, 55, 99, 1)"></use><use xlink:href="#SvgjsG1709" transform="translate(121.60000000000001, 0) scale(1.6)" fill="rgba(40, 55, 99, 1)"></use><use xlink:href="#SvgjsG1713" transform="translate(121.60000000000001, 60.800000000000004) scale(1.6)" fill="rgba(40, 55, 99, 1)"></use><use xlink:href="#SvgjsG1711" transform="translate(121.60000000000001, 121.60000000000001) scale(1.6)" fill="rgba(40, 55, 99, 1)"></use><use xlink:href="#SvgjsG1711" transform="translate(121.60000000000001, 182.4) scale(1.6)" fill="rgba(40, 55, 99, 1)"></use><use xlink:href="#SvgjsG1715" transform="translate(121.60000000000001, 243.20000000000002) scale(1.6)" fill="rgba(40, 55, 99, 1)"></use><use xlink:href="#SvgjsG1712" transform="translate(121.60000000000001, 304) scale(1.6)" fill="rgba(40, 55, 99, 1)"></use><use xlink:href="#SvgjsG1712" transform="translate(121.60000000000001, 364.8) scale(1.6)" fill="rgba(40, 55, 99, 1)"></use><use xlink:href="#SvgjsG1709" transform="translate(121.60000000000001, 425.6) scale(1.6)" fill="rgba(40, 55, 99, 1)"></use><use xlink:href="#SvgjsG1716" transform="translate(121.60000000000001, 486.40000000000003) scale(1.6)" fill="rgba(40, 55, 99, 1)"></use><use xlink:href="#SvgjsG1715" transform="translate(121.60000000000001, 547.2) scale(1.6)" fill="rgba(40, 55, 99, 1)"></use><use xlink:href="#SvgjsG1710" transform="translate(182.4, 0) scale(1.6)" fill="rgba(40, 55, 99, 1)"></use><use xlink:href="#SvgjsG1714" transform="translate(182.4, 60.800000000000004) scale(1.6)" fill="rgba(40, 55, 99, 1)"></use><use xlink:href="#SvgjsG1709" transform="translate(182.4, 121.60000000000001) scale(1.6)" fill="rgba(40, 55, 99, 1)"></use><use xlink:href="#SvgjsG1710" transform="translate(182.4, 182.4) scale(1.6)" fill="rgba(40, 55, 99, 1)"></use><use xlink:href="#SvgjsG1716" transform="translate(182.4, 243.20000000000002) scale(1.6)" fill="rgba(40, 55, 99, 1)"></use><use xlink:href="#SvgjsG1717" transform="translate(182.4, 304) scale(1.6)" fill="rgba(40, 55, 99, 1)"></use><use xlink:href="#SvgjsG1709" transform="translate(182.4, 364.8) scale(1.6)" fill="rgba(40, 55, 99, 1)"></use><use xlink:href="#SvgjsG1711" transform="translate(182.4, 425.6) scale(1.6)" fill="rgba(40, 55, 99, 1)"></use><use xlink:href="#SvgjsG1711" transform="translate(182.4, 486.40000000000003) scale(1.6)" fill="rgba(40, 55, 99, 1)"></use><use xlink:href="#SvgjsG1712" transform="translate(182.4, 547.2) scale(1.6)" fill="rgba(40, 55, 99, 1)"></use><use xlink:href="#SvgjsG1716" transform="translate(243.20000000000002, 0) scale(1.6)" fill="rgba(40, 55, 99, 1)"></use><use xlink:href="#SvgjsG1713" transform="translate(243.20000000000002, 60.800000000000004) scale(1.6)" fill="rgba(40, 55, 99, 1)"></use><use xlink:href="#SvgjsG1714" transform="translate(243.20000000000002, 121.60000000000001) scale(1.6)" fill="rgba(40, 55, 99, 1)"></use><use xlink:href="#SvgjsG1711" transform="translate(243.20000000000002, 182.4) scale(1.6)" fill="rgba(40, 55, 99, 1)"></use><use xlink:href="#SvgjsG1712" transform="translate(243.20000000000002, 243.20000000000002) scale(1.6)" fill="rgba(40, 55, 99, 1)"></use><use xlink:href="#SvgjsG1716" transform="translate(243.20000000000002, 304) scale(1.6)" fill="rgba(40, 55, 99, 1)"></use><use xlink:href="#SvgjsG1715" transform="translate(243.20000000000002, 364.8) scale(1.6)" fill="rgba(40, 55, 99, 1)"></use><use xlink:href="#SvgjsG1715" transform="translate(243.20000000000002, 425.6) scale(1.6)" fill="rgba(40, 55, 99, 1)"></use><use xlink:href="#SvgjsG1718" transform="translate(243.20000000000002, 486.40000000000003) scale(1.6)" fill="rgba(40, 55, 99, 1)"></use><use xlink:href="#SvgjsG1713" transform="translate(243.20000000000002, 547.2) scale(1.6)" fill="rgba(40, 55, 99, 1)"></use><use xlink:href="#SvgjsG1711" transform="translate(304, 0) scale(1.6)" fill="rgba(40, 55, 99, 1)"></use><use xlink:href="#SvgjsG1713" transform="translate(304, 60.800000000000004) scale(1.6)" fill="rgba(40, 55, 99, 1)"></use><use xlink:href="#SvgjsG1716" transform="translate(304, 121.60000000000001) scale(1.6)" fill="rgba(40, 55, 99, 1)"></use><use xlink:href="#SvgjsG1710" transform="translate(304, 182.4) scale(1.6)" fill="rgba(40, 55, 99, 1)"></use><use xlink:href="#SvgjsG1712" transform="translate(304, 243.20000000000002) scale(1.6)" fill="rgba(40, 55, 99, 1)"></use><use xlink:href="#SvgjsG1717" transform="translate(304, 304) scale(1.6)" fill="rgba(40, 55, 99, 1)"></use><use xlink:href="#SvgjsG1709" transform="translate(304, 364.8) scale(1.6)" fill="rgba(40, 55, 99, 1)"></use><use xlink:href="#SvgjsG1712" transform="translate(304, 425.6) scale(1.6)" fill="rgba(40, 55, 99, 1)"></use><use xlink:href="#SvgjsG1718" transform="translate(304, 486.40000000000003) scale(1.6)" fill="rgba(40, 55, 99, 1)"></use><use xlink:href="#SvgjsG1716" transform="translate(304, 547.2) scale(1.6)" fill="rgba(40, 55, 99, 1)"></use><use xlink:href="#SvgjsG1716" transform="translate(364.8, 0) scale(1.6)" fill="rgba(40, 55, 99, 1)"></use><use xlink:href="#SvgjsG1710" transform="translate(364.8, 60.800000000000004) scale(1.6)" fill="rgba(40, 55, 99, 1)"></use><use xlink:href="#SvgjsG1713" transform="translate(364.8, 121.60000000000001) scale(1.6)" fill="rgba(40, 55, 99, 1)"></use><use xlink:href="#SvgjsG1716" transform="translate(364.8, 182.4) scale(1.6)" fill="rgba(40, 55, 99, 1)"></use><use xlink:href="#SvgjsG1716" transform="translate(364.8, 243.20000000000002) scale(1.6)" fill="rgba(40, 55, 99, 1)"></use><use xlink:href="#SvgjsG1713" transform="translate(364.8, 304) scale(1.6)" fill="rgba(40, 55, 99, 1)"></use><use xlink:href="#SvgjsG1712" transform="translate(364.8, 364.8) scale(1.6)" fill="rgba(40, 55, 99, 1)"></use><use xlink:href="#SvgjsG1711" transform="translate(364.8, 425.6) scale(1.6)" fill="rgba(40, 55, 99, 1)"></use><use xlink:href="#SvgjsG1714" transform="translate(364.8, 486.40000000000003) scale(1.6)" fill="rgba(40, 55, 99, 1)"></use><use xlink:href="#SvgjsG1716" transform="translate(364.8, 547.2) scale(1.6)" fill="rgba(40, 55, 99, 1)"></use><use xlink:href="#SvgjsG1712" transform="translate(425.6, 0) scale(1.6)" fill="rgba(40, 55, 99, 1)"></use><use xlink:href="#SvgjsG1710" transform="translate(425.6, 60.800000000000004) scale(1.6)" fill="rgba(40, 55, 99, 1)"></use><use xlink:href="#SvgjsG1716" transform="translate(425.6, 121.60000000000001) scale(1.6)" fill="rgba(40, 55, 99, 1)"></use><use xlink:href="#SvgjsG1713" transform="translate(425.6, 182.4) scale(1.6)" fill="rgba(40, 55, 99, 1)"></use><use xlink:href="#SvgjsG1717" transform="translate(425.6, 243.20000000000002) scale(1.6)" fill="rgba(40, 55, 99, 1)"></use><use xlink:href="#SvgjsG1718" transform="translate(425.6, 304) scale(1.6)" fill="rgba(40, 55, 99, 1)"></use><use xlink:href="#SvgjsG1712" transform="translate(425.6, 364.8) scale(1.6)" fill="rgba(40, 55, 99, 1)"></use><use xlink:href="#SvgjsG1710" transform="translate(425.6, 425.6) scale(1.6)" fill="rgba(40, 55, 99, 1)"></use><use xlink:href="#SvgjsG1711" transform="translate(425.6, 486.40000000000003) scale(1.6)" fill="rgba(40, 55, 99, 1)"></use><use xlink:href="#SvgjsG1717" transform="translate(425.6, 547.2) scale(1.6)" fill="rgba(40, 55, 99, 1)"></use><use xlink:href="#SvgjsG1711" transform="translate(486.40000000000003, 0) scale(1.6)" fill="rgba(40, 55, 99, 1)"></use><use xlink:href="#SvgjsG1715" transform="translate(486.40000000000003, 60.800000000000004) scale(1.6)" fill="rgba(40, 55, 99, 1)"></use><use xlink:href="#SvgjsG1714" transform="translate(486.40000000000003, 121.60000000000001) scale(1.6)" fill="rgba(40, 55, 99, 1)"></use><use xlink:href="#SvgjsG1714" transform="translate(486.40000000000003, 182.4) scale(1.6)" fill="rgba(40, 55, 99, 1)"></use><use xlink:href="#SvgjsG1714" transform="translate(486.40000000000003, 243.20000000000002) scale(1.6)" fill="rgba(40, 55, 99, 1)"></use><use xlink:href="#SvgjsG1715" transform="translate(486.40000000000003, 304) scale(1.6)" fill="rgba(40, 55, 99, 1)"></use><use xlink:href="#SvgjsG1713" transform="translate(486.40000000000003, 364.8) scale(1.6)" fill="rgba(40, 55, 99, 1)"></use><use xlink:href="#SvgjsG1714" transform="translate(486.40000000000003, 425.6) scale(1.6)" fill="rgba(40, 55, 99, 1)"></use><use xlink:href="#SvgjsG1711" transform="translate(486.40000000000003, 486.40000000000003) scale(1.6)" fill="rgba(40, 55, 99, 1)"></use><use xlink:href="#SvgjsG1712" transform="translate(486.40000000000003, 547.2) scale(1.6)" fill="rgba(40, 55, 99, 1)"></use><use xlink:href="#SvgjsG1712" transform="translate(547.2, 0) scale(1.6)" fill="rgba(40, 55, 99, 1)"></use><use xlink:href="#SvgjsG1711" transform="translate(547.2, 60.800000000000004) scale(1.6)" fill="rgba(40, 55, 99, 1)"></use><use xlink:href="#SvgjsG1712" transform="translate(547.2, 121.60000000000001) scale(1.6)" fill="rgba(40, 55, 99, 1)"></use><use xlink:href="#SvgjsG1714" transform="translate(547.2, 182.4) scale(1.6)" fill="rgba(40, 55, 99, 1)"></use><use xlink:href="#SvgjsG1714" transform="translate(547.2, 243.20000000000002) scale(1.6)" fill="rgba(40, 55, 99, 1)"></use><use xlink:href="#SvgjsG1709" transform="translate(547.2, 304) scale(1.6)" fill="rgba(40, 55, 99, 1)"></use><use xlink:href="#SvgjsG1711" transform="translate(547.2, 364.8) scale(1.6)" fill="rgba(40, 55, 99, 1)"></use><use xlink:href="#SvgjsG1712" transform="translate(547.2, 425.6) scale(1.6)" fill="rgba(40, 55, 99, 1)"></use><use xlink:href="#SvgjsG1711" transform="translate(547.2, 486.40000000000003) scale(1.6)" fill="rgba(40, 55, 99, 1)"></use><use xlink:href="#SvgjsG1710" transform="translate(547.2, 547.2) scale(1.6)" fill="rgba(40, 55, 99, 1)"></use></g></defs></svg>