<svg xmlns="http://www.w3.org/2000/svg" version="1.1" xmlns:xlink="http://www.w3.org/1999/xlink" xmlns:svgjs="http://svgjs.dev/svgjs" width="1440" height="800" preserveAspectRatio="none" viewBox="0 0 1440 800"><g mask="url(&quot;#SvgjsMask1000&quot;)" fill="none"><use xlink:href="#SvgjsG1012" transform="translate(0, 0)" fill="rgba(40, 55, 99, 1)"></use><use xlink:href="#SvgjsG1012" transform="translate(0, 570)" fill="rgba(40, 55, 99, 1)"></use><use xlink:href="#SvgjsG1012" transform="translate(570, 0)" fill="rgba(40, 55, 99, 1)"></use><use xlink:href="#SvgjsG1012" transform="translate(570, 570)" fill="rgba(40, 55, 99, 1)"></use><use xlink:href="#SvgjsG1012" transform="translate(1140, 0)" fill="rgba(40, 55, 99, 1)"></use><use xlink:href="#SvgjsG1012" transform="translate(1140, 570)" fill="rgba(40, 55, 99, 1)"></use></g><defs><mask id="SvgjsMask1000"><rect width="1440" height="800" fill="#ffffff"></rect></mask><g id="SvgjsG1011"><path d="M7.713 15.485C3.459 15.485 0 12.025 0 7.768 0 3.513 3.459 0.051 7.713 0.051S15.432 3.513 15.432 7.768c0 4.257-3.465 7.716-7.719 7.717z m0-1.91c3.201 0 5.81-2.604 5.81-5.809 0-3.199-2.61-5.807-5.81-5.807-3.202 0-5.804 2.609-5.804 5.807-0.001 3.206 2.602 5.809 5.804 5.809z"></path><path d="M7.753 8.787a0.574 0.574 0 0 1-0.554-0.042 0.578 0.578 0 0 1-0.259-0.399L6.931 3.862a0.58 0.58 0 0 1 1.162 0v3.478l2.975-1.4a0.578 0.578 0 0 1 0.773 0.275c0.138 0.292 0.011 0.637-0.276 0.774l-3.81 1.798z"></path></g><g id="SvgjsG1005"><path d="M11.986 8.245a46.749 46.749 0 0 1-0.521-0.411c-0.146-0.116-0.293-0.233-0.44-0.348-0.88-0.688-1.797-1.316-2.816-1.407A2.815 2.815 0 0 0 7.954 6.067c-0.086 0-0.171 0.011-0.255 0.018-1.022 0.093-1.942 0.717-2.826 1.408l0.093 0.073c0.108 0.085 0.213 0.168 0.32 0.252C6.165 7.137 7.021 6.576 7.954 6.576c0.93 0 1.784 0.558 2.66 1.236a35.098 35.098 0 0 1 0.535 0.421c0.142 0.113 0.283 0.226 0.426 0.338C12.532 9.32 13.531 10 14.658 10c0.437 0 0.854-0.104 1.257-0.273v-0.557c-0.409 0.197-0.825 0.32-1.257 0.32-0.934 0-1.792-0.563-2.672-1.245z"></path><path d="M11.574 7.496c0.029 0.023 0.059 0.046 0.088 0.07 0.109 0.087 0.216 0.17 0.325 0.256 0.318-0.246 0.635-0.476 0.952-0.67v1.37c0.17 0.111 0.34 0.214 0.51 0.301V6.878c0.315-0.147 0.634-0.248 0.96-0.283v2.537c0.078 0.01 0.157 0.018 0.237 0.018 0.091 0 0.183-0.009 0.273-0.021V6.592c0.34 0.037 0.67 0.144 0.996 0.3V6.336C15.514 6.17 15.099 6.067 14.664 6.067c-1.128 0-2.13 0.68-3.09 1.429z m-7.248 1.08c-0.034-0.027-0.068-0.053-0.102-0.08-0.104-0.083-0.207-0.162-0.31-0.245-0.877 0.678-1.733 1.238-2.665 1.238C0.82 9.49 0.407 9.36 0 9.152v0.562C0.401 9.891 0.815 10 1.249 10c1.124 0 2.122-0.677 3.077-1.423z"></path><path d="M0.989 9.133c0.084 0.011 0.17 0.019 0.254 0.02 0.086 0 0.171-0.008 0.256-0.02V6.592c0.329 0.035 0.65 0.136 0.967 0.285-0.002 0.012-0.007 0.023-0.007 0.036v1.903a5.818 5.818 0 0 0 0.51-0.303V7.152c0.487 0.3 0.971 0.684 1.467 1.08C5.525 9.101 6.652 10 7.948 10c1.123 0 2.121-0.675 3.078-1.42l-0.106-0.084c-0.103-0.082-0.205-0.161-0.306-0.242-0.313 0.242-0.622 0.466-0.934 0.658V7.564A5.816 5.816 0 0 0 9.17 7.261v1.893c0 0.01 0.004 0.019 0.005 0.029-0.316 0.149-0.637 0.252-0.965 0.288V6.937a1.97 1.97 0 0 0-0.267-0.02c-0.082 0-0.163 0.008-0.243 0.017v2.541c-0.33-0.035-0.652-0.136-0.969-0.283 0.002-0.013 0.006-0.024 0.006-0.039V7.248a5.629 5.629 0 0 0-0.51 0.302v1.368c-0.49-0.299-0.976-0.686-1.474-1.083C3.666 6.966 2.539 6.067 1.243 6.067c-0.432 0-0.844 0.096-1.243 0.251v0.55c0.324-0.144 0.652-0.244 0.989-0.278V9.133z"></path></g><g id="SvgjsG1010"><path d="M2.524 8.637H0.014V7.308h2.51v1.329zM3.656 4.576L1.884 2.804l0.935-0.935 1.772 1.772-0.935 0.935z m0 6.817l0.935 0.935-1.772 1.773-0.934-0.936 1.771-1.772z m4.997-8.884h-1.33V-0.002h1.33v2.511z m-1.33 10.952h1.33v2.51h-1.33v-2.509zM12.344 4.576l-0.96-0.935 1.796-1.772 0.935 0.935-1.772 1.772z m0 6.792l1.771 1.797-0.935 0.936-1.771-1.774 0.936-0.96z m3.643-4.06v1.329h-2.51V7.308h2.509z"></path><path d="M3.702 7.984a4.184 4.184 0 1 0 8.368 0 4.184 4.184 0 1 0-8.368 0"></path></g><g id="SvgjsG1002"><path d="M11.221 11.657c-2.056 2.056-5.389 2.055-7.444 0-2.056-2.056-2.056-5.389 0-7.444 0.976-0.977 2.617-2.176 5.214-2.176 4.749 0 6.224-1.252 6.224-1.252 0 5.707-1.938 8.816-3.994 10.872z"></path><path d="M3.223 11.626L2.552 10.224l6.437-4.363z"></path><path d="M8.989 5.861l1.15 1.15-8.203 8.203-1.151-1.15z"></path></g><g id="SvgjsG1007"><path d="M0.267 14.413h15.466V16H0.267z m0.632-1.535h13.998v0.872H0.899z m1.139-7.74h2.352v7.056h-2.352z m4.693 0h2.352v7.056h-2.352z m4.513 0h2.352v7.056H11.244zM0 3.595L8 0l8 3.595-0.007 0.927L0 4.535z"></path></g><g id="SvgjsG1009"><path d="M2.457 6.907a1.47 1.47 0 0 0-0.149 0.652l0.053 3.502L1.156 13.662a0.786 0.786 0 0 0 0.572 1.156 0.782 0.782 0 0 0 0.805-0.398l1.33-2.848a0.811 0.811 0 0 0 0.071-0.32l-0.012-2.162 2.044 0.889 0.329 2.115a0.788 0.788 0 0 0 1.55-0.266L7.442 9.28a0.795 0.795 0 0 0-0.441-0.569L5.173 7.9l1.165-2.023 0.576 0.733a0.604 0.604 0 0 0 0.22 0.156l2.198 0.64a0.622 0.622 0 0 0 0.705-0.37 0.622 0.622 0 0 0-0.341-0.808l-0.03-0.011-1.91-0.562-1.44-1.724a1.433 1.433 0 0 0-2.266 0.218l-1.595 2.759z"></path><path d="M8.764 11.924l-0.142 1.048-3.779 0.92 0.035 0.65h9.223c0.325 0 0.59-0.267 0.591-0.59L14.681 1.52 13.419 1.227l-0.729 3.265-1.213 0.511L10.4 8.018l1.024 2.306-0.288 0.885-2.373 0.715zM6.196 3.33A1.179 1.179 0 1 0 6.192 0.974a1.179 1.179 0 0 0 0.004 2.356M3.852 3.515a0.338 0.338 0 0 0-0.124-0.459l-0.569-0.334a0.338 0.338 0 0 0-0.462 0.124L0.942 5.879a0.338 0.338 0 0 0 0.125 0.459l0.572 0.329c0.16 0.094 0.363 0.039 0.457-0.121l1.756-3.031z"></path></g><g id="SvgjsG1006"><path d="M15.964 4.774l-1.312 10.327H10.223L8.916 4.774h5.408L15.395 1.04 16 1.21l-1.024 3.562 0.988 0.002zM8.29 10.788s0.166-1.502-2.131-1.502H2.5c-2.293 0-2.131 1.502-2.132 1.502h7.922zM0.368 13.595s-0.162 1.506 2.132 1.506h3.659c2.297 0 2.131-1.506 2.131-1.506H0.369z m7.578-0.727a0.68 0.68 0 0 0 0.68-0.68c0-0.372-0.304-0.676-0.68-0.676H0.68C0.306 11.512 0 11.816 0 12.188a0.682 0.682 0 0 0 0.68 0.68h7.266z"></path></g><g id="SvgjsG1003"><path d="M12.16 7.692l-0.293 0.501s-0.053 0.108-0.223 0.108H10.791l-0.487-1.447c0.038-0.007 0.078-0.015 0.105-0.019 0.305-0.055 0.409-0.055 0.636 0.061 0 0 0.971 0.501 1.037 0.539 0.082 0.04 0.133 0.16 0.078 0.256z m-2.332-0.745l0.459 1.354H6.895c-0.074 0-0.152-0.044-0.152-0.16v-0.183c0-0.099 0.042-0.16 0.131-0.203 0.103-0.048 0.718-0.293 1.089-0.391a40.023 40.023 0 0 1 1.865-0.417z m1.789 3.792c0.442-0.07 1.276-0.204 1.755-0.34 0.208-0.053 0.419-0.268 0.48-0.392l1.144-1.744v2.183c0 0.246 0.366 0.246 0.366 0V8.193h0.156c0.438 0 0.438-0.657 0-0.657h-0.156V5.356c0-0.246-0.366-0.246-0.366 0v2.18h-0.106c-0.39-0.038-2.224-0.234-2.578-0.417-0.356-0.187-0.729-0.398-1.077-0.577-0.32-0.16-0.506-0.149-0.853-0.09-0.196 0.038-1.349 0.253-2.467 0.537-1.38 0.349-3.084 1.152-3.084 1.152l-1.948 0.007c-0.446-0.129-0.621-0.963-0.815-1.33L1.577 5.828c-0.036-0.082-0.126-0.107-0.211-0.11l-1.241-0.075c-0.187-0.011-0.116 0.145-0.09 0.235l0.851 3.337c0.089 0.373 0.607 0.729 0.971 0.767l5.013 0.769h0.063l4.685-0.012z" fill-rule="evenodd"></path></g><g id="SvgjsG1008"><path d="M8.655 0C5.901 0 3.36 2.069 2.833 4.347 2.715 4.854 2.582 6.177 2.582 6.177L1.318 9.37A0.469 0.469 0 0 0 1.28 9.561a0.488 0.488 0 0 0 0.489 0.488h0.814v1.697c0 1.324 1.07 2.396 2.392 2.396h0.952V16h3.535v-0.829h1.44V16h1.503V10.847c1.413-1.111 2.322-2.838 2.322-4.774C14.726 2.718 12.01 0 8.655 0zM4.077 7.387a0.682 0.682 0 0 1-0.682-0.682c0-0.375 0.306-0.68 0.682-0.68a0.681 0.681 0 0 1 0.679 0.68c0 0.377-0.306 0.682-0.68 0.682z m5.385 4.46h1.44v0.779h-1.44v-0.779z m0-1.108h1.44v0.778h-1.44V10.739z m0 2.215h1.44v0.78h-1.44v-0.78z m0 1.109h1.44v0.78h-1.44V14.062z m0-4.431h1.448c-0.003 0.057-0.009 0.113-0.009 0.172v0.607h-1.44V9.632z m3.986-4.488a1.557 1.557 0 0 1-0.427 1.071c-0.045 0.592-0.42 1.091-0.942 1.316v0.005c-0.637 0.372-1.019 1.005-1.135 1.766H10.354v-1.765c0.004-0.55 0.177-0.902 0.539-1.119a1.907 1.907 0 0 0 0.356-0.26 1.229 1.229 0 0 1 0.659 0.556c0.032 0.053 0.088 0.083 0.144 0.082 0.027 0 0.055-0.007 0.08-0.021a0.163 0.163 0 0 0 0.064-0.224h-0.001a1.563 1.563 0 0 0-0.721-0.657c0.15-0.231 0.234-0.506 0.23-0.837 0-0.002 0.002-0.003 0.003-0.006 0-0.149-0.022-0.294-0.062-0.431a1.572 1.572 0 0 0 0.871-0.486 0.164 0.164 0 0 0-0.011-0.234 0.164 0.164 0 0 0-0.232 0.011 1.248 1.248 0 0 1-0.755 0.396c-0.24-0.444-0.686-0.76-1.209-0.818a1.235 1.235 0 0 1 0.353-0.724 0.166 0.166 0 0 0 0-0.233 0.166 0.166 0 0 0-0.234 0 1.572 1.572 0 0 0-0.45 0.937 1.244 1.244 0 0 1-1.088-1.234c0-0.09-0.075-0.165-0.163-0.165-0.093 0-0.166 0.075-0.167 0.165 0 0.107 0.01 0.21 0.031 0.31a1.24 1.24 0 0 1-1.235 0.229s-0.002 0-0.003-0.001a1.225 1.225 0 0 1-0.453-0.289c-0.063-0.064-0.168-0.064-0.233 0-0.065 0.064-0.065 0.168 0 0.233a1.59 1.59 0 0 0 0.452 0.316c-0.033 0.411-0.271 0.764-0.605 0.963a1.578 1.578 0 0 0-0.84-0.639 0.166 0.166 0 0 0-0.209 0.107c-0.024 0.087 0.02 0.179 0.108 0.207a1.247 1.247 0 0 1 0.63 0.455 1.221 1.221 0 0 1-0.32 0.042h-0.02a1.568 1.568 0 0 0-1.096 0.444 0.161 0.161 0 0 0-0.003 0.233 0.162 0.162 0 0 0 0.231 0.003 1.236 1.236 0 0 1 0.868-0.35h0.019c0.794 0 1.453-0.591 1.557-1.358 0.113 0.024 0.226 0.038 0.34 0.038A1.574 1.574 0 0 0 8.699 2.88a1.558 1.558 0 0 0 0.45 0.583 1.556 1.556 0 0 0-0.341 0.82 1.622 1.622 0 0 0-0.256-0.021 1.557 1.557 0 0 0-0.736 0.185c-0.08 0.043-0.111 0.142-0.068 0.224 0.03 0.055 0.088 0.087 0.147 0.087a0.144 0.144 0 0 0 0.075-0.02 1.25 1.25 0 0 1 0.583-0.146c0.087 0 0.173 0.01 0.256 0.027a1.576 1.576 0 0 0 0.428 0.92c0.033 0.034 0.076 0.051 0.118 0.051 0.04 0 0.082-0.015 0.115-0.046 0.067-0.063 0.069-0.167 0.005-0.232h-0.001a1.253 1.253 0 0 1-0.345-0.829c0-0.004 0.001-0.008 0-0.013v-0.018a1.237 1.237 0 0 1 0.299-0.81 1.57 1.57 0 0 0 0.701 0.166s0.001 0 0.003 0h0.003a1.244 1.244 0 0 1 1.241 1.24 1.566 1.566 0 0 0-0.401-0.052c-0.196 0-0.395 0.036-0.587 0.114a0.164 0.164 0 0 0-0.091 0.215c0.035 0.084 0.129 0.125 0.214 0.09a1.247 1.247 0 0 1 0.464-0.091c0.124 0 0.248 0.019 0.363 0.055a0.953 0.953 0 0 1-0.242 0.464 0.14 0.14 0 0 0-0.025 0.029c-0.094 0.092-0.207 0.177-0.346 0.262-0.477 0.278-0.706 0.784-0.701 1.403V9.301h-0.563V7.624c0-0.616-0.386-1.201-0.873-1.409-0.232-0.09-0.474-0.241-0.65-0.438a1.558 1.558 0 0 1-0.878 0.271 1.555 1.555 0 0 1-0.877-0.269 1.581 1.581 0 0 1-0.87 0.26c-0.883 0-1.596-0.715-1.597-1.597 0-0.659 0.398-1.224 0.969-1.467 0.154-0.703 0.777-1.229 1.527-1.23 0.04 0 0.076 0.003 0.113 0.006a1.567 1.567 0 0 1 1.295-0.684c0.266 0 0.516 0.066 0.736 0.185a1.558 1.558 0 0 1 1.925 0.158 1.553 1.553 0 0 1 0.365-0.044c0.633 0 1.18 0.381 1.424 0.926 0.642 0.195 1.11 0.79 1.11 1.496a1.576 1.576 0 0 1-0.054 0.408 1.561 1.561 0 0 1 0.321 0.948z"></path></g><g id="SvgjsG1001"><path d="M7.45 12.652S6.4 11.121 3.725 11.121C1.274 11.121 0 11.833 0 11.833V1.937s1.274-0.712 3.725-0.729C6.4 1.19 7.45 2.756 7.45 2.756V12.652z m1.087 0s1.05-1.531 3.725-1.531c2.451 0 3.725 0.712 3.725 0.713V1.937s-1.274-0.712-3.725-0.729c-2.675-0.017-3.725 1.548-3.725 1.548v9.896z"></path><path d="M8.012 15.733S6.4 13.411 3.725 13.411c-2.451 0-3.725 0.712-3.725 0.712v-1.186s1.274-0.712 3.725-0.729c2.675-0.018 4.287 2.34 4.287 2.34V15.733z m0 0s1.612-2.323 4.287-2.323c2.451 0 3.725 0.712 3.725 0.712v-1.185s-1.274-0.712-3.725-0.729c-2.675-0.019-4.287 2.339-4.287 2.339v1.185z"></path></g><g id="SvgjsG1004"><path d="M3.755 2.315h2.494v11.128h-2.494zM13.507 0.537H16v11.261h-2.493z"></path><path d="M4.451 5.556l-0.696-3.24L16 0v3.167z"></path><path d="M0 13.443a3.124 2.606 0 1 0 6.249 0 3.124 2.606 0 1 0-6.249 0"></path><path d="M9.751 11.798a3.124 2.606 0 1 0 6.249 0 3.124 2.606 0 1 0-6.249 0"></path></g><g id="SvgjsG1012"><use xlink:href="#SvgjsG1001" transform="translate(0, 0) scale(1.5)" fill="rgba(40, 55, 99, 1)"></use><use xlink:href="#SvgjsG1002" transform="translate(0, 57) scale(1.5)" fill="rgba(40, 55, 99, 1)"></use><use xlink:href="#SvgjsG1003" transform="translate(0, 114) scale(1.5)" fill="rgba(40, 55, 99, 1)"></use><use xlink:href="#SvgjsG1004" transform="translate(0, 171) scale(1.5)" fill="rgba(40, 55, 99, 1)"></use><use xlink:href="#SvgjsG1005" transform="translate(0, 228) scale(1.5)" fill="rgba(40, 55, 99, 1)"></use><use xlink:href="#SvgjsG1003" transform="translate(0, 285) scale(1.5)" fill="rgba(40, 55, 99, 1)"></use><use xlink:href="#SvgjsG1006" transform="translate(0, 342) scale(1.5)" fill="rgba(40, 55, 99, 1)"></use><use xlink:href="#SvgjsG1007" transform="translate(0, 399) scale(1.5)" fill="rgba(40, 55, 99, 1)"></use><use xlink:href="#SvgjsG1002" transform="translate(0, 456) scale(1.5)" fill="rgba(40, 55, 99, 1)"></use><use xlink:href="#SvgjsG1002" transform="translate(0, 513) scale(1.5)" fill="rgba(40, 55, 99, 1)"></use><use xlink:href="#SvgjsG1005" transform="translate(57, 0) scale(1.5)" fill="rgba(40, 55, 99, 1)"></use><use xlink:href="#SvgjsG1007" transform="translate(57, 57) scale(1.5)" fill="rgba(40, 55, 99, 1)"></use><use xlink:href="#SvgjsG1007" transform="translate(57, 114) scale(1.5)" fill="rgba(40, 55, 99, 1)"></use><use xlink:href="#SvgjsG1006" transform="translate(57, 171) scale(1.5)" fill="rgba(40, 55, 99, 1)"></use><use xlink:href="#SvgjsG1008" transform="translate(57, 228) scale(1.5)" fill="rgba(40, 55, 99, 1)"></use><use xlink:href="#SvgjsG1001" transform="translate(57, 285) scale(1.5)" fill="rgba(40, 55, 99, 1)"></use><use xlink:href="#SvgjsG1006" transform="translate(57, 342) scale(1.5)" fill="rgba(40, 55, 99, 1)"></use><use xlink:href="#SvgjsG1002" transform="translate(57, 399) scale(1.5)" fill="rgba(40, 55, 99, 1)"></use><use xlink:href="#SvgjsG1001" transform="translate(57, 456) scale(1.5)" fill="rgba(40, 55, 99, 1)"></use><use xlink:href="#SvgjsG1003" transform="translate(57, 513) scale(1.5)" fill="rgba(40, 55, 99, 1)"></use><use xlink:href="#SvgjsG1009" transform="translate(114, 0) scale(1.5)" fill="rgba(40, 55, 99, 1)"></use><use xlink:href="#SvgjsG1003" transform="translate(114, 57) scale(1.5)" fill="rgba(40, 55, 99, 1)"></use><use xlink:href="#SvgjsG1010" transform="translate(114, 114) scale(1.5)" fill="rgba(40, 55, 99, 1)"></use><use xlink:href="#SvgjsG1005" transform="translate(114, 171) scale(1.5)" fill="rgba(40, 55, 99, 1)"></use><use xlink:href="#SvgjsG1007" transform="translate(114, 228) scale(1.5)" fill="rgba(40, 55, 99, 1)"></use><use xlink:href="#SvgjsG1002" transform="translate(114, 285) scale(1.5)" fill="rgba(40, 55, 99, 1)"></use><use xlink:href="#SvgjsG1001" transform="translate(114, 342) scale(1.5)" fill="rgba(40, 55, 99, 1)"></use><use xlink:href="#SvgjsG1010" transform="translate(114, 399) scale(1.5)" fill="rgba(40, 55, 99, 1)"></use><use xlink:href="#SvgjsG1005" transform="translate(114, 456) scale(1.5)" fill="rgba(40, 55, 99, 1)"></use><use xlink:href="#SvgjsG1006" transform="translate(114, 513) scale(1.5)" fill="rgba(40, 55, 99, 1)"></use><use xlink:href="#SvgjsG1002" transform="translate(171, 0) scale(1.5)" fill="rgba(40, 55, 99, 1)"></use><use xlink:href="#SvgjsG1010" transform="translate(171, 57) scale(1.5)" fill="rgba(40, 55, 99, 1)"></use><use xlink:href="#SvgjsG1008" transform="translate(171, 114) scale(1.5)" fill="rgba(40, 55, 99, 1)"></use><use xlink:href="#SvgjsG1010" transform="translate(171, 171) scale(1.5)" fill="rgba(40, 55, 99, 1)"></use><use xlink:href="#SvgjsG1009" transform="translate(171, 228) scale(1.5)" fill="rgba(40, 55, 99, 1)"></use><use xlink:href="#SvgjsG1011" transform="translate(171, 285) scale(1.5)" fill="rgba(40, 55, 99, 1)"></use><use xlink:href="#SvgjsG1004" transform="translate(171, 342) scale(1.5)" fill="rgba(40, 55, 99, 1)"></use><use xlink:href="#SvgjsG1011" transform="translate(171, 399) scale(1.5)" fill="rgba(40, 55, 99, 1)"></use><use xlink:href="#SvgjsG1008" transform="translate(171, 456) scale(1.5)" fill="rgba(40, 55, 99, 1)"></use><use xlink:href="#SvgjsG1004" transform="translate(171, 513) scale(1.5)" fill="rgba(40, 55, 99, 1)"></use><use xlink:href="#SvgjsG1003" transform="translate(228, 0) scale(1.5)" fill="rgba(40, 55, 99, 1)"></use><use xlink:href="#SvgjsG1010" transform="translate(228, 57) scale(1.5)" fill="rgba(40, 55, 99, 1)"></use><use xlink:href="#SvgjsG1001" transform="translate(228, 114) scale(1.5)" fill="rgba(40, 55, 99, 1)"></use><use xlink:href="#SvgjsG1001" transform="translate(228, 171) scale(1.5)" fill="rgba(40, 55, 99, 1)"></use><use xlink:href="#SvgjsG1011" transform="translate(228, 228) scale(1.5)" fill="rgba(40, 55, 99, 1)"></use><use xlink:href="#SvgjsG1009" transform="translate(228, 285) scale(1.5)" fill="rgba(40, 55, 99, 1)"></use><use xlink:href="#SvgjsG1002" transform="translate(228, 342) scale(1.5)" fill="rgba(40, 55, 99, 1)"></use><use xlink:href="#SvgjsG1009" transform="translate(228, 399) scale(1.5)" fill="rgba(40, 55, 99, 1)"></use><use xlink:href="#SvgjsG1005" transform="translate(228, 456) scale(1.5)" fill="rgba(40, 55, 99, 1)"></use><use xlink:href="#SvgjsG1009" transform="translate(228, 513) scale(1.5)" fill="rgba(40, 55, 99, 1)"></use><use xlink:href="#SvgjsG1009" transform="translate(285, 0) scale(1.5)" fill="rgba(40, 55, 99, 1)"></use><use xlink:href="#SvgjsG1009" transform="translate(285, 57) scale(1.5)" fill="rgba(40, 55, 99, 1)"></use><use xlink:href="#SvgjsG1005" transform="translate(285, 114) scale(1.5)" fill="rgba(40, 55, 99, 1)"></use><use xlink:href="#SvgjsG1003" transform="translate(285, 171) scale(1.5)" fill="rgba(40, 55, 99, 1)"></use><use xlink:href="#SvgjsG1008" transform="translate(285, 228) scale(1.5)" fill="rgba(40, 55, 99, 1)"></use><use xlink:href="#SvgjsG1004" transform="translate(285, 285) scale(1.5)" fill="rgba(40, 55, 99, 1)"></use><use xlink:href="#SvgjsG1010" transform="translate(285, 342) scale(1.5)" fill="rgba(40, 55, 99, 1)"></use><use xlink:href="#SvgjsG1003" transform="translate(285, 399) scale(1.5)" fill="rgba(40, 55, 99, 1)"></use><use xlink:href="#SvgjsG1001" transform="translate(285, 456) scale(1.5)" fill="rgba(40, 55, 99, 1)"></use><use xlink:href="#SvgjsG1001" transform="translate(285, 513) scale(1.5)" fill="rgba(40, 55, 99, 1)"></use><use xlink:href="#SvgjsG1004" transform="translate(342, 0) scale(1.5)" fill="rgba(40, 55, 99, 1)"></use><use xlink:href="#SvgjsG1009" transform="translate(342, 57) scale(1.5)" fill="rgba(40, 55, 99, 1)"></use><use xlink:href="#SvgjsG1002" transform="translate(342, 114) scale(1.5)" fill="rgba(40, 55, 99, 1)"></use><use xlink:href="#SvgjsG1003" transform="translate(342, 171) scale(1.5)" fill="rgba(40, 55, 99, 1)"></use><use xlink:href="#SvgjsG1010" transform="translate(342, 228) scale(1.5)" fill="rgba(40, 55, 99, 1)"></use><use xlink:href="#SvgjsG1011" transform="translate(342, 285) scale(1.5)" fill="rgba(40, 55, 99, 1)"></use><use xlink:href="#SvgjsG1008" transform="translate(342, 342) scale(1.5)" fill="rgba(40, 55, 99, 1)"></use><use xlink:href="#SvgjsG1011" transform="translate(342, 399) scale(1.5)" fill="rgba(40, 55, 99, 1)"></use><use xlink:href="#SvgjsG1005" transform="translate(342, 456) scale(1.5)" fill="rgba(40, 55, 99, 1)"></use><use xlink:href="#SvgjsG1003" transform="translate(342, 513) scale(1.5)" fill="rgba(40, 55, 99, 1)"></use><use xlink:href="#SvgjsG1005" transform="translate(399, 0) scale(1.5)" fill="rgba(40, 55, 99, 1)"></use><use xlink:href="#SvgjsG1011" transform="translate(399, 57) scale(1.5)" fill="rgba(40, 55, 99, 1)"></use><use xlink:href="#SvgjsG1005" transform="translate(399, 114) scale(1.5)" fill="rgba(40, 55, 99, 1)"></use><use xlink:href="#SvgjsG1002" transform="translate(399, 171) scale(1.5)" fill="rgba(40, 55, 99, 1)"></use><use xlink:href="#SvgjsG1004" transform="translate(399, 228) scale(1.5)" fill="rgba(40, 55, 99, 1)"></use><use xlink:href="#SvgjsG1007" transform="translate(399, 285) scale(1.5)" fill="rgba(40, 55, 99, 1)"></use><use xlink:href="#SvgjsG1002" transform="translate(399, 342) scale(1.5)" fill="rgba(40, 55, 99, 1)"></use><use xlink:href="#SvgjsG1005" transform="translate(399, 399) scale(1.5)" fill="rgba(40, 55, 99, 1)"></use><use xlink:href="#SvgjsG1009" transform="translate(399, 456) scale(1.5)" fill="rgba(40, 55, 99, 1)"></use><use xlink:href="#SvgjsG1011" transform="translate(399, 513) scale(1.5)" fill="rgba(40, 55, 99, 1)"></use><use xlink:href="#SvgjsG1005" transform="translate(456, 0) scale(1.5)" fill="rgba(40, 55, 99, 1)"></use><use xlink:href="#SvgjsG1010" transform="translate(456, 57) scale(1.5)" fill="rgba(40, 55, 99, 1)"></use><use xlink:href="#SvgjsG1003" transform="translate(456, 114) scale(1.5)" fill="rgba(40, 55, 99, 1)"></use><use xlink:href="#SvgjsG1010" transform="translate(456, 171) scale(1.5)" fill="rgba(40, 55, 99, 1)"></use><use xlink:href="#SvgjsG1001" transform="translate(456, 228) scale(1.5)" fill="rgba(40, 55, 99, 1)"></use><use xlink:href="#SvgjsG1003" transform="translate(456, 285) scale(1.5)" fill="rgba(40, 55, 99, 1)"></use><use xlink:href="#SvgjsG1001" transform="translate(456, 342) scale(1.5)" fill="rgba(40, 55, 99, 1)"></use><use xlink:href="#SvgjsG1002" transform="translate(456, 399) scale(1.5)" fill="rgba(40, 55, 99, 1)"></use><use xlink:href="#SvgjsG1005" transform="translate(456, 456) scale(1.5)" fill="rgba(40, 55, 99, 1)"></use><use xlink:href="#SvgjsG1005" transform="translate(456, 513) scale(1.5)" fill="rgba(40, 55, 99, 1)"></use><use xlink:href="#SvgjsG1009" transform="translate(513, 0) scale(1.5)" fill="rgba(40, 55, 99, 1)"></use><use xlink:href="#SvgjsG1001" transform="translate(513, 57) scale(1.5)" fill="rgba(40, 55, 99, 1)"></use><use xlink:href="#SvgjsG1005" transform="translate(513, 114) scale(1.5)" fill="rgba(40, 55, 99, 1)"></use><use xlink:href="#SvgjsG1003" transform="translate(513, 171) scale(1.5)" fill="rgba(40, 55, 99, 1)"></use><use xlink:href="#SvgjsG1009" transform="translate(513, 228) scale(1.5)" fill="rgba(40, 55, 99, 1)"></use><use xlink:href="#SvgjsG1011" transform="translate(513, 285) scale(1.5)" fill="rgba(40, 55, 99, 1)"></use><use xlink:href="#SvgjsG1003" transform="translate(513, 342) scale(1.5)" fill="rgba(40, 55, 99, 1)"></use><use xlink:href="#SvgjsG1003" transform="translate(513, 399) scale(1.5)" fill="rgba(40, 55, 99, 1)"></use><use xlink:href="#SvgjsG1003" transform="translate(513, 456) scale(1.5)" fill="rgba(40, 55, 99, 1)"></use><use xlink:href="#SvgjsG1002" transform="translate(513, 513) scale(1.5)" fill="rgba(40, 55, 99, 1)"></use></g></defs></svg>